<?xml version="1.0" standalone="no"?>
<!DOCTYPE svg PUBLIC "-//W3C//DTD SVG 20010904//EN"
 "http://www.w3.org/TR/2001/REC-SVG-20010904/DTD/svg10.dtd">
<svg version="1.0" xmlns="http://www.w3.org/2000/svg"
 width="512.000000pt" height="512.000000pt" viewBox="0 0 512.000000 512.000000"
 preserveAspectRatio="xMidYMid meet">
<metadata>
Created by potrace 1.14, written by Peter Selinger 2001-2017
</metadata>
<g transform="translate(0.000000,512.000000) scale(0.100000,-0.100000)"
fill="#000000" stroke="none">
<path d="M3810 4144 c-369 -29 -631 -176 -751 -419 -66 -135 -82 -214 -82
-405 0 -137 3 -178 21 -243 91 -332 306 -492 844 -627 218 -55 311 -86 399
-131 180 -94 253 -227 253 -464 0 -133 -15 -208 -59 -300 -89 -186 -265 -276
-545 -277 -145 -1 -221 12 -329 56 -119 48 -253 156 -353 285 -28 36 -55 70
-59 75 -7 8 -88 -54 -229 -172 l-35 -30 59 -76 c237 -310 579 -461 996 -442
566 26 876 316 897 836 16 408 -109 649 -417 805 -92 47 -212 86 -445 146
-358 92 -495 155 -575 262 -69 91 -98 228 -80 383 16 145 50 223 129 297 99
93 243 137 443 137 280 0 462 -89 619 -301 32 -43 56 -66 63 -61 7 4 65 45
129 91 l118 83 -17 27 c-110 173 -277 317 -447 386 -138 57 -383 92 -547 79z"/>
<path d="M290 2555 l0 -1535 175 0 175 0 0 700 0 700 685 0 685 0 0 -700 0
-700 175 0 175 0 0 1535 0 1535 -175 0 -175 0 -2 -677 -3 -678 -682 -3 -683
-2 0 680 0 680 -175 0 -175 0 0 -1535z"/>
</g>
</svg>
